REM DIRINDEX 1\2,1\3,1\4,1\5
REM DIRNAME folder01,folder02,folder03,folder04,folder05
TITLE ""
FILE "CD1Track59.mp3" MP3
  TRACK 01 AUDIO
    TITLE "0:"
    INDEX 01 00:00:00
  TRACK 02 AUDIO
    TITLE "5:cjc100_0781"
    INDEX 01 00:00:25
  TRACK 03 AUDIO
    TITLE "0:"
    INDEX 01 00:03:15
  TRACK 04 AUDIO
    TITLE "2:cjc100_0782"
    INDEX 01 00:04:17
  TRACK 05 AUDIO
    TITLE "2:cjc100_0783"
    INDEX 01 00:05:30
  TRACK 06 AUDIO
    TITLE "0:"
    INDEX 01 00:10:14
  TRACK 07 AUDIO
    TITLE "2:cjc100_0784"
    INDEX 01 00:10:51
  TRACK 08 AUDIO
    TITLE "2:cjc100_0785"
    INDEX 01 00:11:72
  TRACK 09 AUDIO
    TITLE "0:"
    INDEX 01 00:18:31
  TRACK 10 AUDIO
    TITLE "2:cjc100_0786"
    INDEX 01 00:19:03
  TRACK 11 AUDIO
    TITLE "2:cjc100_0787"
    INDEX 01 00:20:34
  TRACK 12 AUDIO
    TITLE "0:"
    INDEX 01 00:25:54
  TRACK 13 AUDIO
    TITLE "2:cjc100_0788"
    INDEX 01 00:26:26
  TRACK 14 AUDIO
    TITLE "2:cjc100_0789"
    INDEX 01 00:27:53
  TRACK 15 AUDIO
    TITLE "0:"
    INDEX 01 00:35:39
  TRACK 16 AUDIO
    TITLE "2:cjc100_0790"
    INDEX 01 00:36:13
  TRACK 17 AUDIO
    TITLE "2:cjc100_0791"
    INDEX 01 00:37:52
  TRACK 18 AUDIO
    TITLE "0:"
    INDEX 01 00:42:27
  TRACK 19 AUDIO
    TITLE "2:cjc100_0792"
    INDEX 01 00:43:01
  TRACK 20 AUDIO
    TITLE "2:cjc100_0793"
    INDEX 01 00:44:18
  TRACK 21 AUDIO
    TITLE "0:"
    INDEX 01 00:50:29
  TRACK 22 AUDIO
    TITLE "2:cjc100_0794"
    INDEX 01 00:50:72
  TRACK 23 AUDIO
    TITLE "2:cjc100_0795"
    INDEX 01 00:52:57
  TRACK 24 AUDIO
    TITLE "0:"
    INDEX 01 00:57:52
  TRACK 25 AUDIO
    TITLE "2:cjc100_0796"
    INDEX 01 00:58:18
  TRACK 26 AUDIO
    TITLE "2:cjc100_0797"
    INDEX 01 00:59:53
  TRACK 27 AUDIO
    TITLE "0:"
    INDEX 01 01:05:56
  TRACK 28 AUDIO
    TITLE "2:cjc100_0798"
    INDEX 01 01:06:24
  TRACK 29 AUDIO
    TITLE "2:cjc100_0799"
    INDEX 01 01:07:49
  TRACK 30 AUDIO
    TITLE "0:"
    INDEX 01 01:12:50
  TRACK 31 AUDIO
    TITLE "2:cjc100_0800"
    INDEX 01 01:13:18
  TRACK 32 AUDIO
    TITLE "2:cjc100_0801"
    INDEX 01 01:14:51
  TRACK 33 AUDIO
    TITLE "0:"
    INDEX 01 01:21:10
  TRACK 34 AUDIO
    TITLE "2:cjc100_0802"
    INDEX 01 01:21:53
  TRACK 35 AUDIO
    TITLE "2:cjc100_0803"
    INDEX 01 01:23:58
  TRACK 36 AUDIO
    TITLE "0:"
    INDEX 01 01:29:33
  TRACK 37 AUDIO
    TITLE "2:cjc100_0804"
    INDEX 01 01:29:70
  TRACK 38 AUDIO
    TITLE "0:"
    INDEX 01 01:33:36
  TRACK 39 AUDIO
    TITLE "2:cjc100_0805"
    INDEX 01 01:34:03
  TRACK 40 AUDIO
    TITLE "2:cjc100_0806"
    INDEX 01 01:35:55
  TRACK 41 AUDIO
    TITLE "0:"
    INDEX 01 01:40:29
  TRACK 42 AUDIO
    TITLE "2:cjc100_0807"
    INDEX 01 01:40:70
  TRACK 43 AUDIO
    TITLE "2:cjc100_0808"
    INDEX 01 01:42:22
  TRACK 44 AUDIO
    TITLE "0:"
    INDEX 01 01:50:41
  TRACK 45 AUDIO
    TITLE "2:cjc100_0809"
    INDEX 01 01:51:11
  TRACK 46 AUDIO
    TITLE "2:cjc100_0810"
    INDEX 01 01:52:51
  TRACK 47 AUDIO
    TITLE "0:"
    INDEX 01 01:58:56
  TRACK 48 AUDIO
    TITLE "2:cjc100_0811"
    INDEX 01 01:59:20
  TRACK 49 AUDIO
    TITLE "2:cjc100_0812"
    INDEX 01 02:00:49
  TRACK 50 AUDIO
    TITLE "0:"
    INDEX 01 02:07:39
  TRACK 51 AUDIO
    TITLE "2:cjc100_0813"
    INDEX 01 02:08:03
  TRACK 52 AUDIO
    TITLE "2:cjc100_0814"
    INDEX 01 02:09:60
  TRACK 53 AUDIO
    TITLE "0:"
    INDEX 01 02:16:44
  TRACK 54 AUDIO
    TITLE "2:cjc100_0815"
    INDEX 01 02:17:12
  TRACK 55 AUDIO
    TITLE "2:cjc100_0816"
    INDEX 01 02:18:74
  TRACK 56 AUDIO
    TITLE "0:"
    INDEX 01 02:24:47
  TRACK 57 AUDIO
    TITLE "2:cjc100_0817"
    INDEX 01 02:25:20
  TRACK 58 AUDIO
    TITLE "2:cjc100_0818"
    INDEX 01 02:26:72
  TRACK 59 AUDIO
    TITLE "0:"
    INDEX 01 02:32:51
  TRACK 60 AUDIO
    TITLE "2:cjc100_0819"
    INDEX 01 02:33:19
  TRACK 61 AUDIO
    TITLE "2:cjc100_0820"
    INDEX 01 02:34:64
  TRACK 62 AUDIO
    TITLE "0:"
    INDEX 01 02:40:47
